<svg xmlns="http://www.w3.org/2000/svg" viewBox="0 0 152.05 152.04"><defs><style>.cls-1{fill:#fff;}</style></defs><title>logo_mts_svg</title><g id="Слой_2" data-name="Слой 2"><g id="Слой_1-2" data-name="Слой 1"><path d="M75.55,152q-30.52,0-61,0C4.23,152,0,147.73,0,137.35Q0,76.09.13,14.83C.15,4.18,4.39,0,15,0q60.8.06,121.59.17c10.81,0,15.25,4.39,15.27,15.08q.11,61,.16,122c0,10.45-4.11,14.63-14.46,14.65q-31,0-62,0Zm37.08-65.58C111.28,65.69,105.17,47.9,91,33.66c-9.15-9.18-18.59-9.44-27.47-.08C47,50.93,39.35,71.75,43,95.71c2.67,17.49,15.61,28.27,33.07,29,16.84.73,30.3-9.42,34.69-26.45C111.84,94.13,112.12,89.78,112.63,86.45Z"/><path class="cls-1" d="M112.63,86.45c-.51,3.33-.79,7.68-1.86,11.83-4.39,17-17.85,27.18-34.69,26.45C58.62,124,45.68,113.2,43,95.71c-3.66-24,4-44.78,20.48-62.13,8.88-9.36,18.32-9.1,27.47.08C105.17,47.9,111.28,65.69,112.63,86.45Z"/></g></g></svg>