<svg xmlns="http://www.w3.org/2000/svg" viewBox="0 0 484.18 501.7"><defs><style>.cls-1{fill:#fff;}</style></defs><title>logo_a1_svg</title><g id="Слой_2" data-name="Слой 2"><g id="Слой_1-2" data-name="Слой 1"><path d="M280.42,467.51c-.78-3.08-1.16-5-1.76-6.9-1.1-3.48-2.5-6.87-3.49-10.39-4.76-17-9.49-34-14.07-51-1-3.83-2.68-5.18-7-4.88q-41.62,2.91-83.3,5.16c-7.59.41-12,3.83-14.1,10.95-6.74,23-13.64,45.95-20.35,69-3.9,13.39-1.36,11.42-14.29,13-25.63,3.18-51.3,6-77,8.79a126.61,126.61,0,0,1-18,.33c-9.61-.34-16.89-5.83-23.57-11.94-4.86-4.45-4-10.13-2-15.78,8.61-24.15,17.29-48.28,25.72-72.49Q81.83,244.73,136,88c3.34-9.66,8.15-16.56,17.73-20.49,7.68-3.15,14.62-9.28,22.45-10.51,7.56-1.2,15.87,2.09,23.82,3.57,21.76,4,43.48,8.26,65.25,12.23,4.32.79,6.48,2.86,7.73,7.12q53.51,182.25,107.3,364.42c1.81,6.14,1.65,12-1.32,17.38-1,1.83-4.1,3.24-6.41,3.53-16,2.06-32.12,3.6-48.15,5.64A110.78,110.78,0,0,1,280.42,467.51Zm-71-249.44c-.5,1.57-1,3.13-1.5,4.71-5.82,19.45-11.73,38.87-17.42,58.36-3,10.37-6.1,20.77-8.33,31.33-1.69,8-.24,9.26,7.71,9.25,14.33,0,28.65-.19,43-.35a49.23,49.23,0,0,0,5.17-.65C230.71,285.68,219.67,252.22,209.4,218.07ZM150.3,180.4l-2.39-.81c-31,92.6-64.48,184.35-94.36,277.32l2.27.78C90.81,366.45,123.46,274.41,150.3,180.4ZM22.83,494l2.85,1.16c7.81-14.13,11.43-30,16.88-45.06,5.54-15.36,10.58-30.89,15.86-46.34q7.84-22.93,15.71-45.87,8-23.16,15.93-46.31c5.3-15.44,10.64-30.86,15.85-46.33C111,250.05,116,234.79,121,219.54l-2-.65Q70.94,356.46,22.83,494ZM239,219.17l-2.1.64,10.57,36.53,2.33-.69Zm56.9,205.45-1.76.17q3.25,11.7,6.5,23.4l1.18-.28c-.23-1.4-.35-2.84-.71-4.2C299.38,437.34,297.62,431,295.87,424.62Z"/><path d="M400.92,138.87c-10.17,5.12-19.5,10.21-29.18,14.49a32.24,32.24,0,0,1-12.92,2.27c-5.45,0-10.9-1.21-16.34-1.89-3.2-.4-4.5-2.18-4.48-5.43.08-18.83.13-37.65,0-56.48,0-3.77,2.07-5.18,4.95-6.55a153.91,153.91,0,0,0,50-38.33c8.83-10.11,14.4-22,18.26-34.62,1.05-3.42,2.88-4.84,6.24-5.3C433.92,4.79,450.39,2.41,466.87.1a6.58,6.58,0,0,1,2,0C473.36.9,484,14.23,484,19.05q0,50.49,0,101c0,61.48-.07,123,.13,184.44,0,5.21-1.93,7.94-5.87,10.92-6.12,4.64-12.38,6.17-20,5.33-17.21-1.91-34.48-3.4-51.75-4.6-5.07-.35-5.85-2.5-5.84-6.89q.21-82,.17-164Zm65.87,74.56c4.91-12.52,3.13-197.27,0-207.6ZM340.52,150.54l.87,1.7,20.9-9.49-.64-1.39Z"/><path class="cls-1" d="M209.4,218.07c10.27,34.15,21.31,67.61,28.61,102.65a49.23,49.23,0,0,1-5.17.65c-14.33.16-28.65.35-43,.35-8,0-9.4-1.29-7.71-9.25,2.23-10.56,5.31-21,8.33-31.33,5.69-19.49,11.6-38.91,17.42-58.36C208.37,221.2,208.9,219.64,209.4,218.07Z"/><path class="cls-1" d="M150.3,180.4c-26.84,94-59.49,186-94.48,277.29l-2.27-.78c29.88-93,63.38-184.72,94.36-277.32Z"/><path class="cls-1" d="M22.83,494q48.12-137.56,96.25-275.13l2,.65c-5,15.25-10,30.51-15.13,45.73-5.21,15.47-10.55,30.89-15.85,46.33s-10.63,30.87-15.93,46.31q-7.86,22.93-15.71,45.87c-5.28,15.45-10.32,31-15.86,46.34-5.45,15.08-9.07,30.93-16.88,45.06Z"/><path class="cls-1" d="M239,219.17l10.8,36.48-2.33.69-10.57-36.53Z"/><path class="cls-1" d="M295.87,424.62c1.75,6.36,3.51,12.72,5.21,19.09.36,1.36.48,2.8.71,4.2l-1.18.28q-3.25-11.7-6.5-23.4Z"/><path class="cls-1" d="M466.79,213.43V5.83C469.92,16.16,471.7,200.91,466.79,213.43Z"/><path class="cls-1" d="M340.52,150.54l21.13-9.18.64,1.39-20.9,9.49Z"/></g></g></svg>