<svg xmlns="http://www.w3.org/2000/svg" viewBox="0 0 61.12 103.65"><title>logo_svg</title><g id="Слой_2" data-name="Слой 2"><g id="OBJECTS"><path d="M58.87,30.59c-.77-2.78-3.08-7.23-1.67-9.2a3.08,3.08,0,0,0,.67.29,2.4,2.4,0,0,0,1.19,0,2.89,2.89,0,0,0,1.07-.56,2.6,2.6,0,0,1-1.08.41A2.08,2.08,0,0,1,58,21.4a2.94,2.94,0,0,1-.46-.25,2.35,2.35,0,0,0,.53,0,2,2,0,0,0,1-.35,2.59,2.59,0,0,0,.73-.78,2.64,2.64,0,0,1-.79.67,1.84,1.84,0,0,1-.94.2,2.7,2.7,0,0,1-.41-.06c1.25-1.64,1.19-2.7,1.95-5.8.81-3.36.52-14,.52-14C56.08,16.4,48.79,24,31,28.68c-14.86,3.91-21.63,23.9-8.13,41,6.29,7.95,27,14.63,21.7,29.09,0,0,7.63-7.06-5.45-18.87a125.56,125.56,0,0,0-10.83-8.39c-4.81-3.63-5.58-10.79-1.28-15a6,6,0,0,1,4.32-1.92,46.34,46.34,0,0,1-4.62-4.13,18.46,18.46,0,0,1-3.19-4.31,7.23,7.23,0,0,1-.78-2.57A4.19,4.19,0,0,1,23.29,41a4.15,4.15,0,0,0-.46,2.56A7.26,7.26,0,0,0,23.71,46a18.53,18.53,0,0,0,3.34,4.05,50.45,50.45,0,0,0,8.09,6c1.66.94,3.29,2,5.43,3a5.63,5.63,0,0,0,7.32-2.36c1.09-2.12.56-5,1-5.56s1.65-.88,2.54-2a2,2,0,0,0-.29-2.4c-.72-.34-2.29-1.25-3-1.66.75.36,2.54.8,3.31,1.07a2.45,2.45,0,0,0,1.87-.43,2.59,2.59,0,0,0,.69-2.8c-.21-1-.16-2.24.59-2.72s3.64.16,5.7-1.48S59.66,33.43,58.87,30.59Z"/><path d="M59.11,0S53.84,20.74,34.22,25.64C16.31,30.11,2.38,39,7.31,70,7.31,70-8.83,44.4,6.86,28S44.76,17.49,59.11,0Z"/><path d="M19.29,33.87S4.85,53.66,22.83,71.61c14.43,14.41,27.67,17.22,17.1,32,0,0-21.39-3-28.81-26.91C1.31,45.14,19.29,33.87,19.29,33.87Z"/></g></g></svg>